<?xml version="1.0" encoding="utf-8"?>
<svg xmlns="http://www.w3.org/2000/svg" viewBox="0 0 200 200" id="s">

    <path fill="#DAA520" d="M 87 0
            L 115 0
            L 104 89
            A 12.7 12.7 0 0 1 108 90
            L 163 20
            L 183 39
            L 112 95
            A 12.7 12.7 0 0 1 113 98
            L 203 88
            L 203 115
            L 113 105
            A 12.7 12.7 0 0 1 112 108
            L 183 163
            L 163 183
            L 108 112
            A 12.7 12.7 0 0 1 104 114
            L 115 203
            L 87 203
            L 98 114
            A 12.7 12.7 0 0 1 95 112
            L 39 183
            L 20 163
            L 90 108
            A 12.7 12.7 0 0 1 89 105
            L 0 115
            L 0 88
            L 89 98
            A 12.7 12.7 0 0 1 90 95
            L 20 39
            L 39 20
            L 95 90
            A 12.7 12.7 0 0 1 98 89 Z
            M 101 101
            A 0 0 0 0 0 101 101
            A 0 0 0 0 0 101 101"/>
</svg>
